<?xml version="1.0" encoding="UTF-8" standalone="no" ?>
<!DOCTYPE svg PUBLIC "-//W3C//DTD SVG 1.1//EN" "http://www.w3.org/Graphics/SVG/1.1/DTD/svg11.dtd">
<svg xmlns="http://www.w3.org/2000/svg" xmlns:xlink="http://www.w3.org/1999/xlink" version="1.1" width="400" height="400" viewBox="0 0 400 400" xml:space="preserve">
<desc>Created with Fabric.js 3.6.2</desc>
<defs>
</defs>
<g transform="matrix(0.39 0 0 0.39 200.24 199.93)" id="Outline"  >
<path style="stroke: none; stroke-width: 1; stroke-dasharray: none; stroke-linecap: butt; stroke-dashoffset: 0; stroke-linejoin: miter; stroke-miterlimit: 4; fill: rgb(38,38,38); fill-rule: nonzero; opacity: 1;"  transform=" translate(-256.63, -255.83)" d="M 406 73.43 H 360 V 55.66 a 11.34 11.34 0 0 0 -22.68 0 V 73.43 H 175.87 V 55.66 a 11.34 11.34 0 0 0 -22.68 0 V 73.43 H 107.26 A 47.66 47.66 0 0 0 59.65 121 V 419.74 a 47.66 47.66 0 0 0 47.61 47.6 H 406 a 47.66 47.66 0 0 0 47.6 -47.6 V 121 A 47.66 47.66 0 0 0 406 73.43 Z M 107.26 96.11 h 45.93 v 17.77 a 11.34 11.34 0 1 0 22.68 0 V 96.11 H 337.34 v 17.77 a 11.34 11.34 0 1 0 22.68 0 V 96.11 H 406 A 25 25 0 0 1 430.88 121 v 32 H 82.33 V 121 A 25 25 0 0 1 107.26 96.11 Z M 406 444.66 H 107.26 a 25 25 0 0 1 -24.93 -24.92 V 175.68 H 430.88 V 419.74 A 25 25 0 0 1 406 444.66 Z" stroke-linecap="round" />
</g>
<g transform="matrix(0.39 0 0 0.39 158.58 198.29)" id="Outline"  >
<path style="stroke: none; stroke-width: 1; stroke-dasharray: none; stroke-linecap: butt; stroke-dashoffset: 0; stroke-linejoin: miter; stroke-miterlimit: 4; fill: rgb(38,38,38); fill-rule: nonzero; opacity: 1;"  transform=" translate(-149.95, -251.63)" d="M 179.5 210.75 H 120.41 a 11.33 11.33 0 0 0 -11.34 11.33 v 59.1 a 11.34 11.34 0 0 0 11.34 11.34 H 179.5 a 11.34 11.34 0 0 0 11.34 -11.34 v -59.1 A 11.34 11.34 0 0 0 179.5 210.75 Z m -11.34 59.09 H 131.75 V 233.42 h 36.41 Z" stroke-linecap="round" />
</g>
<g transform="matrix(0.39 0 0 0.39 199.85 198.29)" id="Outline"  >
<path style="stroke: none; stroke-width: 1; stroke-dasharray: none; stroke-linecap: butt; stroke-dashoffset: 0; stroke-linejoin: miter; stroke-miterlimit: 4; fill: rgb(38,38,38); fill-rule: nonzero; opacity: 1;"  transform=" translate(-255.61, -251.63)" d="M 285.15 210.75 H 226.06 a 11.34 11.34 0 0 0 -11.34 11.33 v 59.1 a 11.34 11.34 0 0 0 11.34 11.34 h 59.09 a 11.34 11.34 0 0 0 11.34 -11.34 v -59.1 A 11.33 11.33 0 0 0 285.15 210.75 Z m -11.33 59.09 H 237.4 V 233.42 h 36.42 Z" stroke-linecap="round" />
</g>
<g transform="matrix(0.39 0 0 0.39 241.42 198.29)" id="Outline"  >
<path style="stroke: none; stroke-width: 1; stroke-dasharray: none; stroke-linecap: butt; stroke-dashoffset: 0; stroke-linejoin: miter; stroke-miterlimit: 4; fill: rgb(38,38,38); fill-rule: nonzero; opacity: 1;"  transform=" translate(-362.05, -251.63)" d="M 391.59 210.75 H 332.5 a 11.34 11.34 0 0 0 -11.34 11.33 v 59.1 a 11.34 11.34 0 0 0 11.34 11.34 h 59.09 a 11.34 11.34 0 0 0 11.34 -11.34 v -59.1 A 11.33 11.33 0 0 0 391.59 210.75 Z m -11.33 59.09 H 343.84 V 233.42 h 36.42 Z" stroke-linecap="round" />
</g>
<g transform="matrix(0.39 0 0 0.39 158.58 243.59)" id="Outline"  >
<path style="stroke: none; stroke-width: 1; stroke-dasharray: none; stroke-linecap: butt; stroke-dashoffset: 0; stroke-linejoin: miter; stroke-miterlimit: 4; fill: rgb(38,38,38); fill-rule: nonzero; opacity: 1;"  transform=" translate(-149.95, -367.59)" d="M 179.5 326.71 H 120.41 a 11.34 11.34 0 0 0 -11.34 11.34 v 59.09 a 11.34 11.34 0 0 0 11.34 11.34 H 179.5 a 11.34 11.34 0 0 0 11.34 -11.34 V 338.05 A 11.34 11.34 0 0 0 179.5 326.71 Z M 168.16 385.8 H 131.75 V 349.39 h 36.41 Z" stroke-linecap="round" />
</g>
<g transform="matrix(0.39 0 0 0.39 199.85 243.59)" id="Outline"  >
<path style="stroke: none; stroke-width: 1; stroke-dasharray: none; stroke-linecap: butt; stroke-dashoffset: 0; stroke-linejoin: miter; stroke-miterlimit: 4; fill: rgb(38,38,38); fill-rule: nonzero; opacity: 1;"  transform=" translate(-255.6, -367.59)" d="M 285.15 326.71 H 226.06 a 11.34 11.34 0 0 0 -11.34 11.34 v 59.09 a 11.34 11.34 0 0 0 11.34 11.34 h 59.09 a 11.34 11.34 0 0 0 11.34 -11.34 V 338.05 A 11.34 11.34 0 0 0 285.15 326.71 Z M 273.82 385.8 H 237.4 V 349.39 h 36.42 Z" stroke-linecap="round" />
</g>
<g transform="matrix(0.39 0 0 0.39 241.42 243.59)" id="Outline"  >
<path style="stroke: none; stroke-width: 1; stroke-dasharray: none; stroke-linecap: butt; stroke-dashoffset: 0; stroke-linejoin: miter; stroke-miterlimit: 4; fill: rgb(38,38,38); fill-rule: nonzero; opacity: 1;"  transform=" translate(-362.05, -367.59)" d="M 391.59 326.71 H 332.5 a 11.34 11.34 0 0 0 -11.34 11.34 v 59.09 a 11.34 11.34 0 0 0 11.34 11.34 h 59.09 a 11.34 11.34 0 0 0 11.34 -11.34 V 338.05 A 11.34 11.34 0 0 0 391.59 326.71 Z M 380.26 385.8 H 343.84 V 349.39 h 36.42 Z" stroke-linecap="round" />
</g>
</svg>