<?xml version="1.0" encoding="UTF-8" standalone="no" ?>
<!DOCTYPE svg PUBLIC "-//W3C//DTD SVG 1.1//EN" "http://www.w3.org/Graphics/SVG/1.1/DTD/svg11.dtd">
<svg xmlns="http://www.w3.org/2000/svg" xmlns:xlink="http://www.w3.org/1999/xlink" version="1.1" width="400" height="400" viewBox="0 0 400 400" xml:space="preserve">
<desc>Created with Fabric.js 3.6.2</desc>
<defs>
</defs>
<g transform="matrix(11.11 0 0 11.11 200 200)"  >
<path style="stroke: none; stroke-width: 1; stroke-dasharray: none; stroke-linecap: butt; stroke-dashoffset: 0; stroke-linejoin: miter; stroke-miterlimit: 4; fill: rgb(0,0,0); fill-rule: nonzero; opacity: 1;"  transform=" translate(-12, -12)" d="M 10 3 H 4 a 1 1 0 0 0 -1 1 v 6 a 1 1 0 0 0 1 1 h 6 a 1 1 0 0 0 1 -1 V 4 a 1 1 0 0 0 -1 -1 z M 9 9 H 5 V 5 h 4 v 4 z m 11 -6 h -6 a 1 1 0 0 0 -1 1 v 6 a 1 1 0 0 0 1 1 h 6 a 1 1 0 0 0 1 -1 V 4 a 1 1 0 0 0 -1 -1 z m -1 6 h -4 V 5 h 4 v 4 z m -9 4 H 4 a 1 1 0 0 0 -1 1 v 6 a 1 1 0 0 0 1 1 h 6 a 1 1 0 0 0 1 -1 v -6 a 1 1 0 0 0 -1 -1 z m -1 6 H 5 v -4 h 4 v 4 z m 8 -6 c -2.206 0 -4 1.794 -4 4 s 1.794 4 4 4 s 4 -1.794 4 -4 s -1.794 -4 -4 -4 z m 0 6 c -1.103 0 -2 -0.897 -2 -2 s 0.897 -2 2 -2 s 2 0.897 2 2 s -0.897 2 -2 2 z" stroke-linecap="round" />
</g>
</svg>