<svg width="26" height="26" viewBox="0 0 36 36" fill="none" xmlns="http://www.w3.org/2000/svg">
<g clip-path="url(#clip0_202_11)">
<path d="M33.62 17.53C30.25 11.3 24.34 7.53003 17.8 7.53003C11.26 7.53003 5.33997 11.3 1.99997 17.53L1.71997 18L1.97997 18.48C5.34997 24.71 11.26 28.48 17.8 28.48C24.34 28.48 30.26 24.76 33.62 18.48L33.88 18L33.62 17.53ZM17.8 26.43C12.17 26.43 6.99997 23.29 3.99997 18C6.99997 12.71 12.17 9.57003 17.8 9.57003C23.43 9.57003 28.54 12.72 31.59 18C28.54 23.29 23.42 26.43 17.8 26.43Z" fill="#848484"/>
<path d="M18.09 11.1701C16.7341 11.18 15.4116 11.5915 14.2894 12.3526C13.1673 13.1137 12.2959 14.1903 11.7852 15.4463C11.2745 16.7024 11.1476 18.0817 11.4203 19.4099C11.6931 20.7381 12.3533 21.9557 13.3177 22.9088C14.282 23.862 15.5072 24.508 16.8385 24.7653C18.1698 25.0226 19.5474 24.8796 20.7975 24.3543C22.0475 23.8291 23.1139 22.9451 23.8619 21.8142C24.6099 20.6833 25.0059 19.356 25 18.0001C24.9961 17.0975 24.8141 16.2046 24.4645 15.3725C24.1148 14.5404 23.6044 13.7855 22.9625 13.151C22.3206 12.5165 21.5598 12.0149 20.7237 11.675C19.8876 11.3351 18.9926 11.1635 18.09 11.1701ZM18.09 22.8901C17.1323 22.8802 16.1988 22.5876 15.4068 22.0489C14.6149 21.5103 13.9997 20.7496 13.6387 19.8624C13.2776 18.9753 13.1867 18.0013 13.3774 17.0627C13.5682 16.124 14.032 15.2627 14.7106 14.5868C15.3892 13.9109 16.2525 13.4507 17.1919 13.2638C18.1312 13.0769 19.1049 13.1717 19.9906 13.5364C20.8762 13.9011 21.6344 14.5193 22.1698 15.3135C22.7052 16.1077 22.9941 17.0423 23 18.0001C23.0027 18.6447 22.8774 19.2834 22.6313 19.8792C22.3853 20.475 22.0234 21.016 21.5666 21.4709C21.1099 21.9258 20.5674 22.2854 19.9706 22.5291C19.3738 22.7727 18.7346 22.8954 18.09 22.8901Z" fill="#848484"/>
</g>
<defs>
<clipPath id="clip0_202_11">
<rect width="36" height="36" fill="white"/>
</clipPath>
</defs>
</svg>
