<?xml version="1.0" encoding="UTF-8" standalone="no" ?>
<!DOCTYPE svg PUBLIC "-//W3C//DTD SVG 1.1//EN" "http://www.w3.org/Graphics/SVG/1.1/DTD/svg11.dtd">
<svg xmlns="http://www.w3.org/2000/svg" xmlns:xlink="http://www.w3.org/1999/xlink" version="1.1" width="400" height="400" viewBox="0 0 400 400" xml:space="preserve">
<desc>Created with Fabric.js 3.6.2</desc>
<defs>
</defs>
<g transform="matrix(0.11 0 0 0.11 200 200)"  >
<path style="stroke: none; stroke-width: 1; stroke-dasharray: none; stroke-linecap: butt; stroke-dashoffset: 0; stroke-linejoin: miter; stroke-miterlimit: 4; fill: rgb(0,0,0); fill-rule: nonzero; opacity: 1;"  transform=" translate(-896, -896)" d="M 896 1664 q -26 0 -44 -18 l -624 -602 q -10 -8 -27.5 -26 t -55.5 -65.5 t -68 -97.5 t -53.5 -121 t -23.5 -138 q 0 -220 127 -344 t 351 -124 q 62 0 126.5 21.5 t 120 58 t 95.5 68.5 t 76 68 q 36 -36 76 -68 t 95.5 -68.5 t 120 -58 t 126.5 -21.5 q 224 0 351 124 t 127 344 q 0 221 -229 450 l -623 600 q -18 18 -44 18 z" stroke-linecap="round" />
</g>
</svg>