<svg width="18" height="22" viewBox="0 0 22 24" fill="none" xmlns="http://www.w3.org/2000/svg">
<path d="M19.0484 21.29L19.7726 6.22144H20.9027C21.5282 6.22144 22 5.76801 22 5.16696C22 4.57645 21.5282 4.12302 20.9027 4.12302H16.1297V2.81547C16.1297 1.10721 14.8898 0 12.8818 0H9.10723C7.09925 0 5.85935 1.10721 5.85935 2.81547V4.12302H1.10823C0.482793 4.12302 0 4.57645 0 5.16696C0 5.76801 0.482793 6.22144 1.10823 6.22144H2.22743L2.96259 21.3005C3.05037 23.0193 4.1586 24 5.9581 24H16.0638C17.8414 24 18.9606 23.0088 19.0484 21.29ZM8.16359 2.89982C8.16359 2.3304 8.60249 1.9297 9.2389 1.9297H12.7611C13.3975 1.9297 13.8364 2.3304 13.8364 2.89982L13.8474 4.12302H8.15262L8.16359 2.89982ZM6.23242 21.8805C5.6399 21.8805 5.23392 21.4692 5.201 20.8471L4.48778 6.22144H17.4903L16.799 20.8471C16.7771 21.4798 16.3711 21.8805 15.7676 21.8805H6.23242ZM14.2204 20.2355C14.6594 20.2355 14.9995 19.877 15.0105 19.3919L15.3397 8.78383C15.3616 8.29877 15.0105 7.9297 14.5716 7.9297C14.1327 7.9297 13.7815 8.30931 13.7706 8.77329L13.4414 19.3814C13.4195 19.8559 13.7706 20.2355 14.2204 20.2355ZM7.77955 20.2355C8.2404 20.2355 8.58055 19.8559 8.56958 19.3814L8.2404 8.77329C8.21845 8.30931 7.86733 7.9297 7.4394 7.9297C6.98953 7.9297 6.64938 8.29877 6.67132 8.78383L7.0005 19.3919C7.01147 19.877 7.34065 20.2355 7.77955 20.2355ZM11.0055 20.2355C11.4334 20.2355 11.7955 19.8559 11.7955 19.3919V8.77329C11.7955 8.30931 11.4444 7.9297 11.0055 7.9297C10.5666 7.9297 10.2045 8.30931 10.2045 8.77329V19.3919C10.2045 19.8559 10.5666 20.2355 11.0055 20.2355Z" fill="#EB5757"/>
</svg>
