<?xml version="1.0" encoding="UTF-8"?>
<!DOCTYPE svg PUBLIC "-//W3C//DTD SVG 1.1//EN" "http://www.w3.org/Graphics/SVG/1.1/DTD/svg11.dtd">
<svg xmlns="http://www.w3.org/2000/svg" version="1.1" width="241px" height="218px" style="shape-rendering:geometricPrecision; text-rendering:geometricPrecision; image-rendering:optimizeQuality; fill-rule:evenodd; clip-rule:evenodd" xmlns:xlink="http://www.w3.org/1999/xlink">
<g><path style="opacity:0.859" fill="#002cff" d="M 110.5,32.5 C 147.423,30.2007 173.923,45.534 190,78.5C 203.159,117.744 192.992,149.244 159.5,173C 135.326,185.796 110.659,186.796 85.5,176C 50.3537,154.598 37.8537,123.765 48,83.5C 59.3553,54.7562 80.1887,37.7562 110.5,32.5 Z M 110.5,42.5 C 143.663,40.5331 167.163,54.5331 181,84.5C 189.611,109.17 185.611,131.503 169,151.5C 160.475,146.765 151.642,142.598 142.5,139C 137.146,133.759 137.313,128.592 143,123.5C 144.768,117.076 147.435,111.076 151,105.5C 151.851,101.958 151.351,98.6249 149.5,95.5C 156.998,69.1395 147.332,53.8062 120.5,49.5C 108.567,49.5162 99.0669,54.1829 92,63.5C 90.8035,66.0891 89.8035,68.7558 89,71.5C 89.1718,83.5207 89.1718,95.5207 89,107.5C 92.5625,114.749 96.5625,121.749 101,128.5C 101.79,131.634 101.457,134.634 100,137.5C 91.2018,143.15 82.0351,148.15 72.5,152.5C 53.8885,131.504 49.7219,107.837 60,81.5C 70.6301,60.3592 87.4634,47.3592 110.5,42.5 Z M 113.5,59.5 C 117.936,59.2101 122.27,59.7101 126.5,61C 128.895,63.6901 131.895,65.3568 135.5,66C 137.894,67.9522 139.394,70.4522 140,73.5C 140.869,81.2615 140.369,88.9282 138.5,96.5C 141.806,100.934 141.14,104.601 136.5,107.5C 136.435,113.397 134.101,118.064 129.5,121.5C 128.336,127.472 128.17,133.472 129,139.5C 129.883,142.102 131.383,144.269 133.5,146C 142.653,150.077 151.653,154.41 160.5,159C 138.324,175.523 114.657,177.857 89.5,166C 86.328,164.248 83.328,162.248 80.5,160C 88.0775,155.809 95.7442,151.809 103.5,148C 111.116,141.151 113.616,132.651 111,122.5C 105.658,119.021 102.825,114.021 102.5,107.5C 100.24,105.823 98.5729,103.657 97.5,101C 99.3569,99.8176 100.357,98.151 100.5,96C 96.7565,86.3572 96.9232,76.8572 101,67.5C 104.586,63.7136 108.753,61.0469 113.5,59.5 Z"/></g>
</svg>
