<svg width="26" height="26" viewBox="0 0 36 36" fill="none" xmlns="http://www.w3.org/2000/svg">
<g clip-path="url(#clip0_202_15)">
<path d="M18.37 11.1699C17.5607 11.1709 16.7581 11.3165 16 11.5999L24.8 20.3999C25.0872 19.6325 25.2329 18.8193 25.23 17.9999C25.2221 16.1857 24.4958 14.4486 23.2102 13.1686C21.9245 11.8885 20.1842 11.1699 18.37 11.1699Z" fill="#848484"/>
<path d="M34.29 17.53C30.92 11.3 25.01 7.53003 18.47 7.53003C16.6893 7.53421 14.9206 7.82112 13.23 8.38003L14.84 10C16.0258 9.69356 17.2452 9.53568 18.47 9.53003C24.1 9.53003 29.22 12.67 32.27 17.96C31.1511 19.9226 29.6679 21.6536 27.9 23.06L29.32 24.48C31.3661 22.8294 33.0653 20.7902 34.32 18.48L34.58 18L34.29 17.53Z" fill="#848484"/>
<path d="M4.87 5.78004L9.33 10.24C6.51092 12.0552 4.20691 14.5658 2.64 17.53L2.38 18L2.64 18.48C6.01 24.71 11.92 28.48 18.46 28.48C21.0127 28.4795 23.5322 27.9018 25.83 26.79L30.83 31.79L32.58 30.29L6.58 4.29004L4.87 5.78004ZM13.17 14.08C12.2344 15.3994 11.7959 17.0073 11.9321 18.619C12.0683 20.2307 12.7704 21.7422 13.9141 22.8859C15.0578 24.0296 16.5693 24.7317 18.181 24.8679C19.7927 25.0041 21.4006 24.5656 22.72 23.63L24.32 25.23C22.4678 26.0218 20.4743 26.43 18.46 26.43C12.83 26.43 7.71 23.29 4.66 18C6.12371 15.4083 8.23173 13.2382 10.78 11.7L13.17 14.08Z" fill="#848484"/>
</g>
<defs>
<clipPath id="clip0_202_15">
<rect width="36" height="36" fill="white"/>
</clipPath>
</defs>
</svg>
