<svg width="174" height="149" viewBox="0 0 174 149" fill="none" xmlns="http://www.w3.org/2000/svg">
<path d="M14 1H154C161.18 1 167 6.8203 167 14V135C167 142.18 161.18 148 154 148H14C6.8203 148 1 142.18 1 135V14C1 6.8203 6.8203 1 14 1Z" fill="white" stroke="#848484" stroke-width="2"/>
<path d="M85.685 38.9802V39.6978H91.5818V51.897H76.4186V39.6978H82.3154V38.9802H75.5762V52.6146H92.4242V38.9802H85.685Z" fill="black"/>
<path d="M80.6884 37.8085L80.0776 37.2882L84.0001 33.9469L87.9225 37.2882L87.3117 37.8085L84.4318 35.3552V46.2537H83.5683V35.3552L80.6884 37.8085Z" fill="black"/>
<path d="M28.1705 94.1591C27.3902 94.1591 26.6932 94.0246 26.0795 93.7557C25.4697 93.4867 24.9867 93.1136 24.6307 92.6364C24.2784 92.1553 24.089 91.5985 24.0625 90.9659H25.8466C25.8693 91.3106 25.9848 91.6098 26.1932 91.8636C26.4053 92.1136 26.6818 92.3068 27.0227 92.4432C27.3636 92.5795 27.7424 92.6477 28.1591 92.6477C28.6174 92.6477 29.0227 92.5682 29.375 92.4091C29.7311 92.25 30.0095 92.0284 30.2102 91.7443C30.411 91.4564 30.5114 91.125 30.5114 90.75C30.5114 90.3598 30.411 90.017 30.2102 89.7216C30.0133 89.4223 29.7235 89.1875 29.3409 89.017C28.9621 88.8466 28.5038 88.7614 27.9659 88.7614H26.983V87.3295H27.9659C28.3977 87.3295 28.7765 87.2519 29.1023 87.0966C29.4318 86.9413 29.6894 86.7254 29.875 86.4489C30.0606 86.1686 30.1534 85.8409 30.1534 85.4659C30.1534 85.1061 30.072 84.7936 29.9091 84.5284C29.75 84.2595 29.5227 84.0492 29.2273 83.8977C28.9356 83.7462 28.5909 83.6705 28.1932 83.6705C27.8144 83.6705 27.4602 83.7405 27.1307 83.8807C26.8049 84.017 26.5398 84.214 26.3352 84.4716C26.1307 84.7254 26.0208 85.0303 26.0057 85.3864H24.3068C24.3258 84.7576 24.5114 84.2045 24.8636 83.7273C25.2197 83.25 25.6894 82.8769 26.2727 82.608C26.8561 82.339 27.5038 82.2045 28.2159 82.2045C28.9621 82.2045 29.6061 82.3504 30.1477 82.642C30.6932 82.9299 31.1136 83.3144 31.4091 83.7955C31.7083 84.2765 31.8561 84.803 31.8523 85.375C31.8561 86.0265 31.6742 86.5795 31.3068 87.0341C30.9432 87.4886 30.4583 87.7936 29.8523 87.9489V88.0398C30.625 88.1572 31.2235 88.464 31.6477 88.9602C32.0758 89.4564 32.2879 90.072 32.2841 90.8068C32.2879 91.447 32.1098 92.0208 31.75 92.5284C31.3939 93.036 30.9072 93.4356 30.2898 93.7273C29.6723 94.0152 28.9659 94.1591 28.1705 94.1591ZM36.9943 94.1932C36.4413 94.1932 35.9413 94.0909 35.4943 93.8864C35.0473 93.678 34.6932 93.3769 34.4318 92.983C34.1742 92.589 34.0455 92.1061 34.0455 91.5341C34.0455 91.0417 34.1402 90.6364 34.3295 90.3182C34.5189 90 34.7746 89.7481 35.0966 89.5625C35.4186 89.3769 35.7784 89.2367 36.1761 89.142C36.5739 89.0473 36.9792 88.9754 37.392 88.9261C37.9148 88.8655 38.339 88.8163 38.6648 88.7784C38.9905 88.7367 39.2273 88.6705 39.375 88.5795C39.5227 88.4886 39.5966 88.3409 39.5966 88.1364V88.0966C39.5966 87.6004 39.4564 87.2159 39.1761 86.9432C38.8996 86.6705 38.4867 86.5341 37.9375 86.5341C37.3655 86.5341 36.9148 86.661 36.5852 86.9148C36.2595 87.1648 36.0341 87.4432 35.9091 87.75L34.3125 87.3864C34.5019 86.8561 34.7784 86.428 35.142 86.1023C35.5095 85.7727 35.9318 85.5341 36.4091 85.3864C36.8864 85.2348 37.3883 85.1591 37.9148 85.1591C38.2633 85.1591 38.6326 85.2008 39.0227 85.2841C39.4167 85.3636 39.7841 85.5114 40.125 85.7273C40.4697 85.9432 40.7519 86.2519 40.9716 86.6534C41.1913 87.0511 41.3011 87.5682 41.3011 88.2045V94H39.642V92.8068H39.5739C39.464 93.0265 39.2992 93.2424 39.0795 93.4545C38.8598 93.6667 38.5777 93.8428 38.233 93.983C37.8883 94.1231 37.4754 94.1932 36.9943 94.1932ZM37.3636 92.8295C37.8333 92.8295 38.2348 92.7367 38.5682 92.5511C38.9053 92.3655 39.161 92.1231 39.3352 91.8239C39.5133 91.5208 39.6023 91.197 39.6023 90.8523V89.7273C39.5417 89.7879 39.4242 89.8447 39.25 89.8977C39.0795 89.947 38.8845 89.9905 38.6648 90.0284C38.4451 90.0625 38.2311 90.0947 38.0227 90.125C37.8144 90.1515 37.6402 90.1742 37.5 90.1932C37.1705 90.2348 36.8693 90.3049 36.5966 90.4034C36.3277 90.5019 36.1117 90.6439 35.9489 90.8295C35.7898 91.0114 35.7102 91.2538 35.7102 91.5568C35.7102 91.9773 35.8655 92.2955 36.1761 92.5114C36.4867 92.7235 36.8826 92.8295 37.3636 92.8295ZM49.1435 85.2727V86.7386H45.2401V94H43.5639V85.2727H49.1435ZM50.9389 97.2727V85.2727H52.598V86.6875H52.7401C52.8385 86.5057 52.9806 86.2955 53.1662 86.0568C53.3518 85.8182 53.6094 85.6098 53.9389 85.4318C54.2685 85.25 54.7041 85.1591 55.2457 85.1591C55.9503 85.1591 56.5791 85.3371 57.1321 85.6932C57.6851 86.0492 58.1188 86.5625 58.4332 87.233C58.7514 87.9034 58.9105 88.7102 58.9105 89.6534C58.9105 90.5966 58.7533 91.4053 58.4389 92.0795C58.1245 92.75 57.6927 93.267 57.1435 93.6307C56.5942 93.9905 55.9673 94.1705 55.2628 94.1705C54.7325 94.1705 54.2988 94.0814 53.9616 93.9034C53.6283 93.7254 53.367 93.517 53.1776 93.2784C52.9882 93.0398 52.8423 92.8277 52.7401 92.642H52.6378V97.2727H50.9389ZM52.6037 89.6364C52.6037 90.25 52.6927 90.7879 52.8707 91.25C53.0488 91.7121 53.3063 92.0739 53.6435 92.3352C53.9806 92.5928 54.3935 92.7216 54.8821 92.7216C55.3897 92.7216 55.8139 92.5871 56.1548 92.3182C56.4957 92.0455 56.7533 91.6761 56.9276 91.2102C57.1056 90.7443 57.1946 90.2197 57.1946 89.6364C57.1946 89.0606 57.1075 88.5436 56.9332 88.0852C56.7628 87.6269 56.5052 87.2652 56.1605 87C55.8196 86.7348 55.3935 86.6023 54.8821 86.6023C54.3897 86.6023 53.973 86.7292 53.6321 86.983C53.295 87.2367 53.0393 87.5909 52.8651 88.0455C52.6908 88.5 52.6037 89.0303 52.6037 89.6364ZM61.5909 97.2727C61.3371 97.2727 61.1061 97.2519 60.8977 97.2102C60.6894 97.1723 60.5341 97.1307 60.4318 97.0852L60.8409 95.6932C61.1515 95.7765 61.428 95.8125 61.6705 95.8011C61.9129 95.7898 62.1269 95.6989 62.3125 95.5284C62.5019 95.358 62.6686 95.0795 62.8125 94.6932L63.0227 94.1136L59.8295 85.2727H61.6477L63.858 92.0455H63.9489L66.1591 85.2727H67.983L64.3864 95.1648C64.2197 95.6193 64.0076 96.0038 63.75 96.3182C63.4924 96.6364 63.1856 96.875 62.8295 97.0341C62.4735 97.1932 62.0606 97.2727 61.5909 97.2727ZM69.0625 91.6932H70.8011C70.8239 92.0492 70.9848 92.3239 71.2841 92.517C71.5871 92.7102 71.9792 92.8068 72.4602 92.8068C72.9489 92.8068 73.3655 92.7027 73.7102 92.4943C74.0549 92.2822 74.2273 91.9545 74.2273 91.5114C74.2273 91.2462 74.161 91.0152 74.0284 90.8182C73.8996 90.6174 73.7159 90.4621 73.4773 90.3523C73.2424 90.2424 72.964 90.1875 72.642 90.1875H71.2216V88.8523H72.642C73.1231 88.8523 73.483 88.7424 73.7216 88.5227C73.9602 88.303 74.0795 88.0284 74.0795 87.6989C74.0795 87.3428 73.9508 87.0568 73.6932 86.8409C73.4394 86.6212 73.0852 86.5114 72.6307 86.5114C72.1686 86.5114 71.7841 86.6155 71.4773 86.8239C71.1705 87.0284 71.0095 87.2936 70.9943 87.6193H69.2784C69.2898 87.1307 69.4375 86.7027 69.7216 86.3352C70.0095 85.964 70.3958 85.6761 70.8807 85.4716C71.3693 85.2633 71.9242 85.1591 72.5455 85.1591C73.1932 85.1591 73.7538 85.2633 74.2273 85.4716C74.7008 85.6799 75.0663 85.9678 75.3239 86.3352C75.5852 86.7027 75.7159 87.125 75.7159 87.6023C75.7159 88.0833 75.572 88.4773 75.2841 88.7841C75 89.0871 74.6288 89.3049 74.1705 89.4375V89.5284C74.5076 89.5511 74.8068 89.6534 75.0682 89.8352C75.3295 90.017 75.5341 90.2576 75.6818 90.5568C75.8295 90.8561 75.9034 91.1951 75.9034 91.5739C75.9034 92.108 75.7557 92.5701 75.4602 92.9602C75.1686 93.3504 74.7633 93.6515 74.2443 93.8636C73.7292 94.072 73.1402 94.1761 72.4773 94.1761C71.8333 94.1761 71.2557 94.0758 70.7443 93.875C70.2367 93.6705 69.8333 93.3826 69.5341 93.0114C69.2386 92.6402 69.0814 92.2008 69.0625 91.6932ZM79.3224 91.6193L83.169 85.2727H84.9986V94H83.3338V87.6477L79.5043 94H77.6577V85.2727H79.3224V91.6193ZM86.2003 86.7386V85.2727H93.5639V86.7386H90.7173V94H89.0582V86.7386H86.2003ZM96.6392 88.2727H99.1733C100.241 88.2727 101.063 88.5379 101.639 89.0682C102.215 89.5985 102.503 90.2822 102.503 91.1193C102.503 91.6648 102.374 92.1553 102.116 92.5909C101.859 93.0265 101.482 93.3712 100.986 93.625C100.49 93.875 99.8854 94 99.1733 94H95.3608V85.2727H97.0256V92.5341H99.1733C99.6619 92.5341 100.063 92.4072 100.378 92.1534C100.692 91.8958 100.849 91.5682 100.849 91.1705C100.849 90.75 100.692 90.4072 100.378 90.142C100.063 89.8731 99.6619 89.7386 99.1733 89.7386H96.6392V88.2727ZM112.398 96.9716V82.3636H114.097V96.9716H112.398ZM112.398 94.1761C111.78 94.1761 111.218 94.0701 110.71 93.858C110.203 93.642 109.765 93.3352 109.398 92.9375C109.03 92.5398 108.746 92.0644 108.545 91.5114C108.348 90.9583 108.25 90.3466 108.25 89.6761C108.25 88.9981 108.348 88.3826 108.545 87.8295C108.746 87.2765 109.03 86.8011 109.398 86.4034C109.765 86.0057 110.203 85.6989 110.71 85.483C111.218 85.267 111.78 85.1591 112.398 85.1591H112.818V94.1761H112.398ZM112.398 92.7443H112.636V86.5909H112.398C111.989 86.5909 111.633 86.6742 111.33 86.8409C111.027 87.0038 110.775 87.2292 110.574 87.517C110.373 87.8011 110.222 88.1288 110.119 88.5C110.021 88.8712 109.972 89.2633 109.972 89.6761C109.972 90.2292 110.061 90.7386 110.239 91.2045C110.417 91.6667 110.686 92.0398 111.045 92.3239C111.405 92.6042 111.856 92.7443 112.398 92.7443ZM114.097 94.1761H113.67V85.1591H114.097C114.714 85.1591 115.277 85.267 115.784 85.483C116.292 85.6989 116.727 86.0057 117.091 86.4034C117.458 86.8011 117.741 87.2765 117.938 87.8295C118.138 88.3826 118.239 88.9981 118.239 89.6761C118.239 90.3466 118.138 90.9583 117.938 91.5114C117.741 92.0644 117.458 92.5398 117.091 92.9375C116.727 93.3352 116.292 93.642 115.784 93.858C115.277 94.0701 114.714 94.1761 114.097 94.1761ZM114.097 92.7443C114.506 92.7443 114.862 92.6648 115.165 92.5057C115.468 92.3428 115.72 92.1193 115.92 91.8352C116.121 91.5473 116.271 91.2197 116.369 90.8523C116.468 90.4811 116.517 90.089 116.517 89.6761C116.517 89.1269 116.428 88.6193 116.25 88.1534C116.076 87.6837 115.809 87.3068 115.449 87.0227C115.089 86.7348 114.638 86.5909 114.097 86.5909H113.852V92.7443H114.097ZM123.803 94.1761C122.984 94.1761 122.27 93.9886 121.661 93.6136C121.051 93.2386 120.577 92.714 120.24 92.0398C119.903 91.3655 119.734 90.5777 119.734 89.6761C119.734 88.7708 119.903 87.9792 120.24 87.3011C120.577 86.6231 121.051 86.0966 121.661 85.7216C122.27 85.3466 122.984 85.1591 123.803 85.1591C124.621 85.1591 125.335 85.3466 125.945 85.7216C126.554 86.0966 127.028 86.6231 127.365 87.3011C127.702 87.9792 127.871 88.7708 127.871 89.6761C127.871 90.5777 127.702 91.3655 127.365 92.0398C127.028 92.714 126.554 93.2386 125.945 93.6136C125.335 93.9886 124.621 94.1761 123.803 94.1761ZM123.808 92.75C124.339 92.75 124.778 92.6098 125.126 92.3295C125.475 92.0492 125.732 91.6761 125.899 91.2102C126.07 90.7443 126.155 90.2311 126.155 89.6705C126.155 89.1136 126.07 88.6023 125.899 88.1364C125.732 87.6667 125.475 87.2898 125.126 87.0057C124.778 86.7216 124.339 86.5795 123.808 86.5795C123.274 86.5795 122.831 86.7216 122.479 87.0057C122.13 87.2898 121.871 87.6667 121.7 88.1364C121.534 88.6023 121.45 89.1136 121.45 89.6705C121.45 90.2311 121.534 90.7443 121.7 91.2102C121.871 91.6761 122.13 92.0492 122.479 92.3295C122.831 92.6098 123.274 92.75 123.808 92.75ZM128.716 86.7386V85.2727H136.08V86.7386H133.233V94H131.574V86.7386H128.716ZM141.146 94.1761C140.328 94.1761 139.614 93.9886 139.004 93.6136C138.394 93.2386 137.921 92.714 137.584 92.0398C137.247 91.3655 137.078 90.5777 137.078 89.6761C137.078 88.7708 137.247 87.9792 137.584 87.3011C137.921 86.6231 138.394 86.0966 139.004 85.7216C139.614 85.3466 140.328 85.1591 141.146 85.1591C141.964 85.1591 142.679 85.3466 143.288 85.7216C143.898 86.0966 144.372 86.6231 144.709 87.3011C145.046 87.9792 145.214 88.7708 145.214 89.6761C145.214 90.5777 145.046 91.3655 144.709 92.0398C144.372 92.714 143.898 93.2386 143.288 93.6136C142.679 93.9886 141.964 94.1761 141.146 94.1761ZM141.152 92.75C141.682 92.75 142.122 92.6098 142.47 92.3295C142.819 92.0492 143.076 91.6761 143.243 91.2102C143.413 90.7443 143.499 90.2311 143.499 89.6705C143.499 89.1136 143.413 88.6023 143.243 88.1364C143.076 87.6667 142.819 87.2898 142.47 87.0057C142.122 86.7216 141.682 86.5795 141.152 86.5795C140.618 86.5795 140.175 86.7216 139.822 87.0057C139.474 87.2898 139.214 87.6667 139.044 88.1364C138.877 88.6023 138.794 89.1136 138.794 89.6705C138.794 90.2311 138.877 90.7443 139.044 91.2102C139.214 91.6761 139.474 92.0492 139.822 92.3295C140.175 92.6098 140.618 92.75 141.152 92.75Z" fill="#848484"/>
</svg>
