<?xml version="1.0" encoding="UTF-8" standalone="no" ?>
<!DOCTYPE svg PUBLIC "-//W3C//DTD SVG 1.1//EN" "http://www.w3.org/Graphics/SVG/1.1/DTD/svg11.dtd">
<svg xmlns="http://www.w3.org/2000/svg" xmlns:xlink="http://www.w3.org/1999/xlink" version="1.1" width="400" height="400" viewBox="0 0 400 400" xml:space="preserve">
<desc>Created with Fabric.js 3.6.2</desc>
<defs>
</defs>
<g transform="matrix(3.13 0 0 3.13 200 200)" id="Fill-57"  >
<path style="stroke: none; stroke-width: 1; stroke-dasharray: none; stroke-linecap: butt; stroke-dashoffset: 0; stroke-linejoin: miter; stroke-miterlimit: 4; fill: rgb(255,255,255); fill-rule: nonzero; opacity: 1;"  transform=" translate(246, 246)" d="M -246 -222.1 c -13.2 0 -23.9 -10.7 -23.9 -23.9 s 10.7 -23.9 23.9 -23.9 c 13.2 0 23.9 10.7 23.9 23.9 S -232.8 -222.1 -246 -222.1 L -246 -222.1 z M -246 -267.3 c -11.7 0 -21.3 9.6 -21.3 21.3 c 0 11.7 9.6 21.3 21.3 21.3 c 11.7 0 21.3 -9.6 21.3 -21.3 C -224.7 -257.7 -234.3 -267.3 -246 -267.3 L -246 -267.3 z" stroke-linecap="round" />
</g>
<g transform="matrix(3.13 0 0 3.13 200.63 198.44)" id="Fill-58"  >
<path style="stroke: none; stroke-width: 1; stroke-dasharray: none; stroke-linecap: butt; stroke-dashoffset: 0; stroke-linejoin: miter; stroke-miterlimit: 4; fill: rgb(255,255,255); fill-rule: nonzero; opacity: 1;"  transform=" translate(245.8, 246.5)" d="M -260 -228.7 l -2.4 -1.1 c 0.7 -1.7 2.9 -2.6 5.4 -3.7 c 2.4 -1.1 5.4 -2.4 5.4 -4 v -2.2 c -0.9 -0.7 -2.3 -2.3 -2.5 -4.6 c -0.7 -0.7 -1.8 -2 -1.8 -3.6 c 0 -1 0.4 -1.8 0.7 -2.3 c -0.2 -1.1 -0.6 -3.3 -0.6 -5 c 0 -5.5 3.8 -9.1 9.8 -9.1 c 1.7 0 3.8 0.5 4.9 1.7 c 2.7 0.5 4.9 3.7 4.9 7.4 c 0 2.4 -0.4 4.4 -0.7 5.3 c 0.3 0.5 0.6 1.2 0.6 2 c 0 1.9 -0.9 3.1 -1.8 3.7 c -0.2 2.3 -1.5 3.8 -2.3 4.5 v 2.2 c 0 1.4 2.5 2.3 4.8 3.2 c 2.7 1 5.5 2 6.4 4.3 l -2.5 0.9 c -0.4 -1.2 -2.8 -2 -4.8 -2.8 c -3.1 -1.1 -6.6 -2.4 -6.6 -5.6 v -3.6 l 0.6 -0.4 c 0.1 0 1.8 -1.2 1.8 -3.5 v -0.9 l 0.8 -0.3 c 0.1 -0.1 0.9 -0.5 0.9 -1.7 c 0 -0.4 -0.3 -0.8 -0.4 -0.9 l -0.5 -0.6 l 0.2 -0.7 c 0 0 0.7 -2.2 0.7 -5.2 c 0 -2.5 -1.4 -4.8 -2.9 -4.8 h -0.8 l -0.4 -0.7 c -0.3 -0.5 -1.5 -1 -3.1 -1 c -4.5 0 -7.2 2.4 -7.2 6.5 c 0 1.9 0.7 5 0.7 5 l 0.2 0.7 l -0.5 0.5 c 0 0 -0.4 0.5 -0.4 1 c 0 0.7 0.9 1.6 1.3 2 l 0.5 0.4 l 0 0.7 c 0 2.2 1.9 3.4 1.9 3.4 l 0.6 0.4 l 0 3.6 c 0 3.3 -3.7 5 -7 6.4 C -257.5 -230.4 -259.6 -229.4 -260 -228.7" stroke-linecap="round" />
</g>
</svg>